<svg xmlns="http://www.w3.org/2000/svg" width="380" height="225" viewBox="0 0 380 225" fill="none" role="img">
<style>
  text { font-family:'Segoe UI',Ubuntu,'Helvetica Neue',Sans-Serif; }
  .title { font-size: 18px; font-weight: 600; fill: #58A6FF; }
  .label { font-size: 14px; fill: #C9D1D9; }
  .value { font-size: 14px; font-weight: 700; fill: #C9D1D9; }
  .muted { font-size: 12px; fill: #8B949E; }
  .fade { opacity: 0; animation: fade .5s ease-in-out forwards; }
  @keyframes fade { to { opacity: 1; } }
</style>
<rect x="0.5" y="0.5" rx="10" width="379" height="224" fill="#0D1117" stroke="#30363D"/>
<text x="25" y="35" class="title">Most Used Languages</text>
<clipPath id="bar"><rect x="25" y="55" width="330" height="8" rx="4"/></clipPath><g clip-path="url(#bar)">
<rect x="25.00" y="55" width="124.55" height="8" fill="#3572A5"/>
<rect x="149.05" y="55" width="50.99" height="8" fill="#f1e05a"/>
<rect x="199.54" y="55" width="41.72" height="8" fill="#3178c6"/>
<rect x="240.76" y="55" width="38.81" height="8" fill="#4F5D95"/>
<rect x="279.07" y="55" width="34.93" height="8" fill="#e34c26"/>
<rect x="313.50" y="55" width="34.15" height="8" fill="#663399"/>
<rect x="347.16" y="55" width="6.17" height="8" fill="#00B4AB"/>
<rect x="352.82" y="55" width="1.30" height="8" fill="#f34b7d"/>
</g>
<g class="fade" style="animation-delay:150ms"><circle cx="30" cy="86" r="5" fill="#3572A5"/><text x="41" y="90" class="label">Python <tspan class="muted">37.6%</tspan></text></g>
<g class="fade" style="animation-delay:250ms"><circle cx="200" cy="86" r="5" fill="#f1e05a"/><text x="211" y="90" class="label">JavaScript <tspan class="muted">15.3%</tspan></text></g>
<g class="fade" style="animation-delay:350ms"><circle cx="30" cy="116" r="5" fill="#3178c6"/><text x="41" y="120" class="label">TypeScript <tspan class="muted">12.5%</tspan></text></g>
<g class="fade" style="animation-delay:450ms"><circle cx="200" cy="116" r="5" fill="#4F5D95"/><text x="211" y="120" class="label">PHP <tspan class="muted">11.6%</tspan></text></g>
<g class="fade" style="animation-delay:550ms"><circle cx="30" cy="146" r="5" fill="#e34c26"/><text x="41" y="150" class="label">HTML <tspan class="muted">10.4%</tspan></text></g>
<g class="fade" style="animation-delay:650ms"><circle cx="200" cy="146" r="5" fill="#663399"/><text x="211" y="150" class="label">CSS <tspan class="muted">10.2%</tspan></text></g>
<g class="fade" style="animation-delay:750ms"><circle cx="30" cy="176" r="5" fill="#00B4AB"/><text x="41" y="180" class="label">Dart <tspan class="muted">1.7%</tspan></text></g>
<g class="fade" style="animation-delay:850ms"><circle cx="200" cy="176" r="5" fill="#f34b7d"/><text x="211" y="180" class="label">C++ <tspan class="muted">0.2%</tspan></text></g>
</svg>
